<svg xmlns="http://www.w3.org/2000/svg" viewBox="-25.5 -25.5 271 291"><g fill="#0a0818" stroke="#0a0818" stroke-linejoin="round" stroke-width="26.4"><path d="M46.3 214.3a72 6 0 1 0 144 0 72 6 0 1 0-144 0Z"/><path d="M58.3 204.3a14 8 0 1 0 28 0 14 8 0 1 0-28 0Zm84 2a14 8 0 1 0 28 0 14 8 0 1 0-28 0Z"/><path d="M34.3 198.3q-6-88 80-96 84 6 82 96-80 14-162 0Z"/><path d="M42.3 156.3q16-46 72-52 58 4 76 48-14-10-24-2-12-12-26-4-14-12-28-2-14-10-26 2-14-8-26 4-8-6-18 6Zm-8 42q82 14 162 0v8q-80 16-160 0Zm146-20q0-22 20-22 20 2 20 20 0 16-18 18-18 0-22-16Z"/><path d="M190.3 152.3q-12-22-32-22 14 10 34 30Z"/><path d="M152.3 130.3a6 6 0 1 0 12 0 6 6 0 1 0-12 0Zm32 34q2-18 18-18 14 2 16 16-16-6-34 2Zm-8-84h16v3.8l-9.9 8.3h9.9v3.8h-16v-3.8l9.9-8.3h-9.9Zm22-22h11v2.6l-6.8 5.7h6.8v2.6h-11v-2.6l6.8-5.7h-6.8Z"/></g><g fill="#0a0818" stroke="#0a0818" stroke-linejoin="round" stroke-width="26.4"><path d="M40 208a72 6 0 1 0 144 0 72 6 0 1 0-144 0Z"/><path d="M52 198a14 8 0 1 0 28 0 14 8 0 1 0-28 0Zm84 2a14 8 0 1 0 28 0 14 8 0 1 0-28 0Z"/><path d="M28 192q-6-88 80-96 84 6 82 96-80 14-162 0Z"/><path d="M36 150q16-46 72-52 58 4 76 48-14-10-24-2-12-12-26-4-14-12-28-2-14-10-26 2-14-8-26 4-8-6-18 6Zm-8 42q82 14 162 0v8q-80 16-160 0Zm146-20q0-22 20-22 20 2 20 20 0 16-18 18-18 0-22-16Z"/><path d="M184 146q-12-22-32-22 14 10 34 30Z"/><path d="M146 124a6 6 0 1 0 12 0 6 6 0 1 0-12 0Zm32 34q2-18 18-18 14 2 16 16-16-6-34 2Zm-8-84h16v3.8l-9.9 8.3h9.9v3.8h-16v-3.8l9.9-8.3H170Zm22-22h11v2.6l-6.8 5.7h6.8v2.6h-11v-2.6l6.8-5.7H192Z"/></g><g fill="#fffbf2" stroke="#fffbf2" stroke-linejoin="round" stroke-width="17.8"><path d="M40 208a72 6 0 1 0 144 0 72 6 0 1 0-144 0Z"/><path d="M52 198a14 8 0 1 0 28 0 14 8 0 1 0-28 0Zm84 2a14 8 0 1 0 28 0 14 8 0 1 0-28 0Z"/><path d="M28 192q-6-88 80-96 84 6 82 96-80 14-162 0Z"/><path d="M36 150q16-46 72-52 58 4 76 48-14-10-24-2-12-12-26-4-14-12-28-2-14-10-26 2-14-8-26 4-8-6-18 6Zm-8 42q82 14 162 0v8q-80 16-160 0Zm146-20q0-22 20-22 20 2 20 20 0 16-18 18-18 0-22-16Z"/><path d="M184 146q-12-22-32-22 14 10 34 30Z"/><path d="M146 124a6 6 0 1 0 12 0 6 6 0 1 0-12 0Zm32 34q2-18 18-18 14 2 16 16-16-6-34 2Zm-8-84h16v3.8l-9.9 8.3h9.9v3.8h-16v-3.8l9.9-8.3H170Zm22-22h11v2.6l-6.8 5.7h6.8v2.6h-11v-2.6l6.8-5.7H192Z"/></g><path fill="#0a0818" stroke="#0a0818" stroke-linejoin="round" stroke-width="2.7" d="M40 208a72 6 0 1 0 144 0 72 6 0 1 0-144 0Z"/><path fill="#9cc27a" stroke="#0a0818" stroke-linejoin="round" stroke-width="4.5" d="M52 198a14 8 0 1 0 28 0 14 8 0 1 0-28 0Zm84 2a14 8 0 1 0 28 0 14 8 0 1 0-28 0Z"/><path fill="#6e4a2c" stroke="#0a0818" stroke-linejoin="round" stroke-width="4.5" d="M28 192q-6-88 80-96 84 6 82 96-80 14-162 0Z"/><path fill="none" stroke="#0a0818" stroke-linecap="round" stroke-linejoin="round" stroke-width="3" d="M34 146q74-20 152 0"/><path fill="none" stroke="#0a0818" stroke-linecap="round" stroke-linejoin="round" stroke-width="3" d="M74 104q-12 46-6 94m74-94q12 46 8 96"/><path fill="#ffd23f" d="M44 168a6 4.2 0 1 0 12 0 6 4.2 0 1 0-12 0m58 2a6 4.2 0 1 0 12 0 6 4.2 0 1 0-12 0m58 0a6 4.2 0 1 0 12 0 6 4.2 0 1 0-12 0"/><path fill="#a99bff" stroke="#0a0818" stroke-linejoin="round" stroke-width="4.5" d="M36 150q16-46 72-52 58 4 76 48-14-10-24-2-12-12-26-4-14-12-28-2-14-10-26 2-14-8-26 4-8-6-18 6Z"/><path fill="#ffd23f" d="M81 118a3 3 0 1 0 6 0 3 3 0 1 0-6 0m46-4a3 3 0 1 0 6 0 3 3 0 1 0-6 0m-22 12a3 3 0 1 0 6 0 3 3 0 1 0-6 0m48-2a3 3 0 1 0 6 0 3 3 0 1 0-6 0"/><path fill="#4a2f1a" stroke="#0a0818" stroke-linejoin="round" stroke-width="4.5" d="M28 192q82 14 162 0v8q-80 16-160 0Z"/><path fill="#9cc27a" stroke="#0a0818" stroke-linejoin="round" stroke-width="4.5" d="M174 172q0-22 20-22 20 2 20 20 0 16-18 18-18 0-22-16Z"/><path fill="#ffd23f" d="M183.8 160a2.2 2.2 0 1 0 4.4 0 2.2 2.2 0 1 0-4.4 0"/><path fill="none" stroke="#0a0818" stroke-linecap="round" stroke-linejoin="round" stroke-width="4" d="M193 166q6 6 13 0"/><path fill="none" stroke="#0a0818" stroke-linecap="round" stroke-linejoin="round" stroke-width="3" d="M196 178q6 3 12-2"/><path fill="#a99bff" stroke="#0a0818" stroke-linejoin="round" stroke-width="4.5" d="M184 146q-12-22-32-22 14 10 34 30Z"/><path fill="#fff" stroke="#0a0818" stroke-linejoin="round" stroke-width="4.5" d="M146 124a6 6 0 1 0 12 0 6 6 0 1 0-12 0Z"/><path fill="#a99bff" stroke="#0a0818" stroke-linejoin="round" stroke-width="4.5" d="M178 158q2-18 18-18 14 2 16 16-16-6-34 2Zm-8-84h16v3.8l-9.9 8.3h9.9v3.8h-16v-3.8l9.9-8.3H170Zm22-22h11v2.6l-6.8 5.7h6.8v2.6h-11v-2.6l6.8-5.7H192Z"/></svg>
