<svg xmlns="http://www.w3.org/2000/svg" viewBox="0 0 400 400"><defs><clipPath id="holidays_easter_circle_night_lg_svg-ccn_easter_l7"><circle cx="200" cy="200" r="195"/></clipPath><pattern id="holidays_easter_circle_night_lg_svg-cpn_easter_l7" width="12" height="12" patternUnits="userSpaceOnUse"><circle cx="6" cy="6" r="2" fill="rgba(255,138,61,0.5)"/></pattern></defs><path fill="#ffd23f" stroke="#0a0818" stroke-linejoin="round" stroke-width="4" d="m197 390-19 59-8-61Zm-56-9-35 51 11-61Zm-50-25-48 38 27-55Zm-41-39-57 23 42-45Zm-27-49-62 5 54-30Zm-13-55-60-13 60-13Zm5-56-54-30 62 5Zm20-52L-7 60l57 23Zm35-44L43 6l48 38Zm47-32-11-61 35 51Z"/><circle cx="200" cy="200" r="197" fill="#ffd23f" stroke="#0a0818" stroke-width="5"/><circle cx="200" cy="200" r="194" fill="url(#holidays_easter_circle_night_lg_svg-cpn_easter_l7)"/><g clip-path="url(#holidays_easter_circle_night_lg_svg-ccn_easter_l7)"><path fill="#fffbf2" stroke="#0a0818" stroke-linejoin="round" stroke-width="3.52" d="M70.3 270h15.4v19.8h18.7v15.4H85.7v44H70.3v-44H51.6v-15.4h18.7Z"/></g><circle cx="200" cy="200" r="197" fill="none" stroke="#0a0818" stroke-width="5"/></svg>
