<svg xmlns="http://www.w3.org/2000/svg" viewBox="-11 -11 142 142"><defs><pattern id="stickers_skate_helmet_lg_svg-r4h111p0" width="4.15" height="4.15" patternUnits="userSpaceOnUse"><circle cx="2.08" cy="2.08" r="1.08" fill="#c25a10"/></pattern></defs><path fill="#ff8a3d" stroke="#0a0818" stroke-linejoin="round" stroke-width="3.4" d="M14 82q-2-60 50-62 44 2 44 56v10H14Z"/><path fill="#0a0818" stroke="#0a0818" stroke-linejoin="round" stroke-width="3.4" d="M14 82h94v10q-48 6-94 0Z"/><path fill="#ffd23f" stroke="#0a0818" stroke-linejoin="round" stroke-width="3.4" d="m78 35 3.5 8.1 8.9.9-6.7 5.9 1.9 8.6L78 54l-7.6 4.5 1.9-8.6-6.7-5.9 8.9-.9Z"/><path fill="#fff" stroke="#0a0818" stroke-linejoin="round" stroke-width="3.4" d="M31 40h12q5 0 5 5v2q0 5-5 5H31q-5 0-5-5v-2q0-5 5-5Z"/><path fill="url(#stickers_skate_helmet_lg_svg-r4h111p0)" d="M90 30q16 16 16 50H88q8-26 2-50"/><path fill="none" stroke="#0a0818" stroke-linecap="round" stroke-linejoin="round" stroke-width="4" d="M30 92q2 16 16 18"/></svg>
