<svg xmlns="http://www.w3.org/2000/svg" viewBox="-27.1 -27.1 174.2 174.2"><g stroke="#0a0818" stroke-linejoin="round"><path fill="none" stroke-linecap="round" stroke-width="34.8" d="M15.2 49.2h60q16 0 16-14 0-12-12-12-10 0-10 10m-46 38h74q18 0 18 16 0 14-14 14-12 0-12-10m-76 2h46"/><path fill="#0a0818" stroke-width="28.7" d="M43.2 101.2q8 16 28 14-4-18-28-14Z"/></g><g stroke="#fffbf2" stroke-linejoin="round"><path fill="none" stroke-linecap="round" stroke-width="27.2" d="M10 44h60q16 0 16-14 0-12-12-12-10 0-10 10M18 66h74q18 0 18 16 0 14-14 14-12 0-12-10M8 88h46"/><path fill="#fffbf2" stroke-width="21.2" d="M38 96q8 16 28 14-4-18-28-14Z"/></g><path fill="none" stroke="#0a0818" stroke-linecap="round" stroke-linejoin="round" stroke-width="10" d="M10 44h60q16 0 16-14 0-12-12-12-10 0-10 10"/><path fill="none" stroke="#fff" stroke-linecap="round" stroke-linejoin="round" stroke-width="4.5" d="M10 44h60q16 0 16-14 0-12-12-12-10 0-10 10"/><path fill="none" stroke="#0a0818" stroke-linecap="round" stroke-linejoin="round" stroke-width="10" d="M18 66h74q18 0 18 16 0 14-14 14-12 0-12-10"/><path fill="none" stroke="#fff" stroke-linecap="round" stroke-linejoin="round" stroke-width="4.5" d="M18 66h74q18 0 18 16 0 14-14 14-12 0-12-10"/><path fill="none" stroke="#0a0818" stroke-linecap="round" stroke-linejoin="round" stroke-width="10" d="M8 88h46"/><path fill="none" stroke="#fff" stroke-linecap="round" stroke-linejoin="round" stroke-width="4.5" d="M8 88h46"/><path fill="#9be564" stroke="#0a0818" stroke-linejoin="round" stroke-width="3.9" d="M38 96q8 16 28 14-4-18-28-14Z"/><path fill="none" stroke="#0a0818" stroke-linecap="round" stroke-linejoin="round" stroke-width="2.6" d="m42 98 22 11"/></svg>
