<svg xmlns="http://www.w3.org/2000/svg" viewBox="-11.9 -11.9 143.7 143.7"><path fill="#ff8a3d" stroke="#0a0818" stroke-linejoin="round" stroke-width="3.4" d="M40 6q20-8 40 0 6 54 0 108-20 8-40 0-6-54 0-108Z"/><path fill="#a99bff" stroke="#0a0818" stroke-linejoin="round" stroke-width="3.4" d="M40 50h40v20H40Z"/><path fill="#0a0818" stroke="#0a0818" stroke-linejoin="round" stroke-width="3.4" d="M49 28h22q3 0 3 3v4q0 3-3 3H49q-3 0-3-3v-4q0-3 3-3Zm0 54h22q3 0 3 3v4q0 3-3 3H49q-3 0-3-3v-4q0-3 3-3Z"/><path fill="none" stroke="#ffd23f" stroke-linecap="round" stroke-linejoin="round" stroke-width="5" d="M60 10v14m0 72v14"/></svg>
