<svg xmlns="http://www.w3.org/2000/svg" viewBox="0 0 978 110"><path fill="none" stroke="#0a0818" stroke-linecap="round" stroke-width="3.5" d="M-10 10q499 18 998 0"/><path fill="#ffd23f" stroke="#0a0818" stroke-linejoin="round" stroke-width="2.8" d="M-1 10.7h20l-10 18Z"/><path fill="#ff3e8a" stroke="#0a0818" stroke-linejoin="round" stroke-width="2.8" d="M29 11.7h20l-10 18Z"/><path fill="#29d3ff" stroke="#0a0818" stroke-linejoin="round" stroke-width="2.8" d="M59 12.6h20l-10 18Zm30 .9h20l-10 18Z"/><path fill="#ffd23f" stroke="#0a0818" stroke-linejoin="round" stroke-width="2.8" d="M119 14.3h20l-10 18Z"/><path fill="#ff3e8a" stroke="#0a0818" stroke-linejoin="round" stroke-width="2.8" d="M149 15.1h20l-10 18Z"/><path fill="#29d3ff" stroke="#0a0818" stroke-linejoin="round" stroke-width="2.8" d="M179 15.7h20l-10 18Zm30 .7h20l-10 18Z"/><path fill="#ffd23f" stroke="#0a0818" stroke-linejoin="round" stroke-width="2.8" d="M239 16.9h20l-10 18Z"/><path fill="#ff3e8a" stroke="#0a0818" stroke-linejoin="round" stroke-width="2.8" d="M269 17.4h20l-10 18Z"/><path fill="#29d3ff" stroke="#0a0818" stroke-linejoin="round" stroke-width="2.8" d="M299 17.8h20l-10 18Zm30 .4h20l-10 18Z"/><path fill="#ffd23f" stroke="#0a0818" stroke-linejoin="round" stroke-width="2.8" d="M359 18.5h20l-10 18Z"/><path fill="#ff3e8a" stroke="#0a0818" stroke-linejoin="round" stroke-width="2.8" d="M389 18.7h20l-10 18Z"/><path fill="#29d3ff" stroke="#0a0818" stroke-linejoin="round" stroke-width="2.8" d="M419 18.8h20l-10 18Zm30 .2h20l-10 18Z"/><path fill="#ffd23f" stroke="#0a0818" stroke-linejoin="round" stroke-width="2.8" d="M479 19h20l-10 18Z"/><path fill="#ff3e8a" stroke="#0a0818" stroke-linejoin="round" stroke-width="2.8" d="M509 19h20l-10 18Z"/><path fill="#29d3ff" stroke="#0a0818" stroke-linejoin="round" stroke-width="2.8" d="M539 18.9h20l-10 18Zm30-.2h20l-10 18Z"/><path fill="#ffd23f" stroke="#0a0818" stroke-linejoin="round" stroke-width="2.8" d="M599 18.5h20l-10 18Z"/><path fill="#ff3e8a" stroke="#0a0818" stroke-linejoin="round" stroke-width="2.8" d="M629 18.2h20l-10 18Z"/><path fill="#29d3ff" stroke="#0a0818" stroke-linejoin="round" stroke-width="2.8" d="M659 17.8h20l-10 18Zm30-.3h20l-10 18Z"/><path fill="#ffd23f" stroke="#0a0818" stroke-linejoin="round" stroke-width="2.8" d="M719 16.9h20l-10 18Z"/><path fill="#ff3e8a" stroke="#0a0818" stroke-linejoin="round" stroke-width="2.8" d="M749 16.4h20l-10 18Z"/><path fill="#29d3ff" stroke="#0a0818" stroke-linejoin="round" stroke-width="2.8" d="M779 15.7h20l-10 18Zm30-.6h20l-10 18Z"/><path fill="#ffd23f" stroke="#0a0818" stroke-linejoin="round" stroke-width="2.8" d="M839 14.3h20l-10 18Z"/><path fill="#ff3e8a" stroke="#0a0818" stroke-linejoin="round" stroke-width="2.8" d="M869 13.5h20l-10 18Z"/><path fill="#29d3ff" stroke="#0a0818" stroke-linejoin="round" stroke-width="2.8" d="M899 12.6h20l-10 18Zm30-.9h20l-10 18Z"/><path fill="#ffd23f" stroke="#0a0818" stroke-linejoin="round" stroke-width="2.8" d="M959 10.7h20l-10 18Z"/><g transform="translate(9 24)"><path fill="none" stroke="#0a0818" stroke-width="2.5" d="M0 42q-6 6 0 12"/><ellipse cy="22" fill="#29d3ff" stroke="#0a0818" stroke-width="3" rx="16" ry="20"/><path fill="#29d3ff" stroke="#0a0818" stroke-linejoin="round" stroke-width="2.5" d="M-4 44h8l-4-4Z"/><path fill="none" stroke="#fffbf2" stroke-linecap="round" stroke-width="3" d="M-8 12q2-5 7-6"/></g><g transform="translate(129 30)"><path fill="none" stroke="#0a0818" stroke-width="2.5" d="M0 42q-6 6 0 12"/><ellipse cy="22" fill="#ffd23f" stroke="#0a0818" stroke-width="3" rx="16" ry="20"/><path fill="#ffd23f" stroke="#0a0818" stroke-linejoin="round" stroke-width="2.5" d="M-4 44h8l-4-4Z"/><path fill="none" stroke="#fffbf2" stroke-linecap="round" stroke-width="3" d="M-8 12q2-5 7-6"/></g><g transform="translate(255 28)"><path fill="none" stroke="#0a0818" stroke-width="2.5" d="M0 42q-6 6 0 12"/><ellipse cy="22" fill="#ffd23f" stroke="#0a0818" stroke-width="3" rx="16" ry="20"/><path fill="#ffd23f" stroke="#0a0818" stroke-linejoin="round" stroke-width="2.5" d="M-4 44h8l-4-4Z"/><path fill="none" stroke="#fffbf2" stroke-linecap="round" stroke-width="3" d="M-8 12q2-5 7-6"/></g><g transform="translate(375 22)"><path fill="none" stroke="#0a0818" stroke-width="2.5" d="M0 42q-6 6 0 12"/><ellipse cy="22" fill="#ff3e8a" stroke="#0a0818" stroke-width="3" rx="16" ry="20"/><path fill="#ff3e8a" stroke="#0a0818" stroke-linejoin="round" stroke-width="2.5" d="M-4 44h8l-4-4Z"/><path fill="none" stroke="#fffbf2" stroke-linecap="round" stroke-width="3" d="M-8 12q2-5 7-6"/></g><g transform="translate(489 32)"><path fill="none" stroke="#0a0818" stroke-width="2.5" d="M0 42q-6 6 0 12"/><ellipse cy="22" fill="#29d3ff" stroke="#0a0818" stroke-width="3" rx="16" ry="20"/><path fill="#29d3ff" stroke="#0a0818" stroke-linejoin="round" stroke-width="2.5" d="M-4 44h8l-4-4Z"/><path fill="none" stroke="#fffbf2" stroke-linecap="round" stroke-width="3" d="M-8 12q2-5 7-6"/></g><g transform="translate(609 24)"><path fill="none" stroke="#0a0818" stroke-width="2.5" d="M0 42q-6 6 0 12"/><ellipse cy="22" fill="#29d3ff" stroke="#0a0818" stroke-width="3" rx="16" ry="20"/><path fill="#29d3ff" stroke="#0a0818" stroke-linejoin="round" stroke-width="2.5" d="M-4 44h8l-4-4Z"/><path fill="none" stroke="#fffbf2" stroke-linecap="round" stroke-width="3" d="M-8 12q2-5 7-6"/></g><g transform="translate(729 30)"><path fill="none" stroke="#0a0818" stroke-width="2.5" d="M0 42q-6 6 0 12"/><ellipse cy="22" fill="#ffd23f" stroke="#0a0818" stroke-width="3" rx="16" ry="20"/><path fill="#ffd23f" stroke="#0a0818" stroke-linejoin="round" stroke-width="2.5" d="M-4 44h8l-4-4Z"/><path fill="none" stroke="#fffbf2" stroke-linecap="round" stroke-width="3" d="M-8 12q2-5 7-6"/></g><g transform="translate(855 28)"><path fill="none" stroke="#0a0818" stroke-width="2.5" d="M0 42q-6 6 0 12"/><ellipse cy="22" fill="#ffd23f" stroke="#0a0818" stroke-width="3" rx="16" ry="20"/><path fill="#ffd23f" stroke="#0a0818" stroke-linejoin="round" stroke-width="2.5" d="M-4 44h8l-4-4Z"/><path fill="none" stroke="#fffbf2" stroke-linecap="round" stroke-width="3" d="M-8 12q2-5 7-6"/></g><g transform="translate(975 22)"><path fill="none" stroke="#0a0818" stroke-width="2.5" d="M0 42q-6 6 0 12"/><ellipse cy="22" fill="#ff3e8a" stroke="#0a0818" stroke-width="3" rx="16" ry="20"/><path fill="#ff3e8a" stroke="#0a0818" stroke-linejoin="round" stroke-width="2.5" d="M-4 44h8l-4-4Z"/><path fill="none" stroke="#fffbf2" stroke-linecap="round" stroke-width="3" d="M-8 12q2-5 7-6"/></g></svg>
