<svg xmlns="http://www.w3.org/2000/svg" viewBox="-11 -11 141.9 141.9"><defs><pattern id="dressing_snow_boots_lg_svg-r4h78p0" width="4.09" height="4.09" patternUnits="userSpaceOnUse"><circle cx="2.05" cy="2.05" r="1.06" fill="#5e3b20"/></pattern></defs><g fill="#0a0818" stroke="#0a0818" stroke-linejoin="round" stroke-width="13.2"><path d="M62.5 28.5h32v54q16 2 18 16v8h-52Z"/><path d="M58.5 18.5q20-8 40 0v16q-20-6-40 0Zm0 82h56v10h-56Z"/><path d="M16.5 28.5h32v54q16 2 18 16v8h-52Z"/><path d="M12.5 18.5q20-8 40 0v16q-20-6-40 0Zm0 82h56v10h-56Z"/></g><g fill="#fffbf2" stroke="#fffbf2" stroke-linejoin="round" stroke-width="10.1"><path d="M60 26h32v54q16 2 18 16v8H58Z"/><path d="M56 16q20-8 40 0v16q-20-6-40 0Zm0 82h56v10H56Z"/><path d="M14 26h32v54q16 2 18 16v8H12Z"/><path d="M10 16q20-8 40 0v16q-20-6-40 0Zm0 82h56v10H10Z"/></g><path fill="#8a5a35" stroke="#0a0818" stroke-linejoin="round" stroke-width="3.4" d="M60 26h32v54q16 2 18 16v8H58Z"/><path fill="#fff" stroke="#0a0818" stroke-linejoin="round" stroke-width="3.4" d="M56 16q20-8 40 0v16q-20-6-40 0Z"/><path fill="#0a0818" stroke="#0a0818" stroke-linejoin="round" stroke-width="3.4" d="M56 98h56v10H56Z"/><path fill="none" stroke="#ffd23f" stroke-linecap="round" stroke-linejoin="round" stroke-width="3.2" d="m68 44 16 8m0-8-16 8m0 8 16 8m0-8-16 8"/><path fill="url(#dressing_snow_boots_lg_svg-r4h78p0)" d="M82 32h10v48q12 2 16 14H82Z"/><path fill="#8a5a35" stroke="#0a0818" stroke-linejoin="round" stroke-width="3.4" d="M14 26h32v54q16 2 18 16v8H12Z"/><path fill="#fff" stroke="#0a0818" stroke-linejoin="round" stroke-width="3.4" d="M10 16q20-8 40 0v16q-20-6-40 0Z"/><path fill="#0a0818" stroke="#0a0818" stroke-linejoin="round" stroke-width="3.4" d="M10 98h56v10H10Z"/><path fill="none" stroke="#ffd23f" stroke-linecap="round" stroke-linejoin="round" stroke-width="3.2" d="m22 44 16 8m0-8-16 8m0 8 16 8m0-8-16 8"/><path fill="url(#dressing_snow_boots_lg_svg-r4h78p0)" d="M36 32h10v48q12 2 16 14H36Z"/></svg>
