<svg xmlns="http://www.w3.org/2000/svg" viewBox="-14.3 -14.3 148.5 148.5"><g fill="#0a0818" stroke="#0a0818" stroke-linejoin="round" stroke-width="15.8"><path d="M62.6 28.6h32v54q16 2 18 16v8h-52Z"/><path d="M58.6 18.6q20-8 40 0v16q-20-6-40 0Zm0 82h56v10h-56Z"/><path d="M16.6 28.6h32v54q16 2 18 16v8h-52Z"/><path d="M12.6 18.6q20-8 40 0v16q-20-6-40 0Zm0 82h56v10h-56Z"/></g><g fill="#fffbf2" stroke="#fffbf2" stroke-linejoin="round" stroke-width="12"><path d="M60 26h32v54q16 2 18 16v8H58Z"/><path d="M56 16q20-8 40 0v16q-20-6-40 0Zm0 82h56v10H56Z"/><path d="M14 26h32v54q16 2 18 16v8H12Z"/><path d="M10 16q20-8 40 0v16q-20-6-40 0Zm0 82h56v10H10Z"/></g><path fill="#8a5a35" stroke="#0a0818" stroke-linejoin="round" stroke-width="3.4" d="M60 26h32v54q16 2 18 16v8H58Z"/><path fill="#fff" stroke="#0a0818" stroke-linejoin="round" stroke-width="3.4" d="M56 16q20-8 40 0v16q-20-6-40 0Z"/><path fill="#0a0818" stroke="#0a0818" stroke-linejoin="round" stroke-width="3.4" d="M56 98h56v10H56Z"/><path fill="none" stroke="#ffd23f" stroke-linecap="round" stroke-linejoin="round" stroke-width="3.2" d="m68 44 16 8m0-8-16 8m0 8 16 8m0-8-16 8"/><path fill="#8a5a35" stroke="#0a0818" stroke-linejoin="round" stroke-width="3.4" d="M14 26h32v54q16 2 18 16v8H12Z"/><path fill="#fff" stroke="#0a0818" stroke-linejoin="round" stroke-width="3.4" d="M10 16q20-8 40 0v16q-20-6-40 0Z"/><path fill="#0a0818" stroke="#0a0818" stroke-linejoin="round" stroke-width="3.4" d="M10 98h56v10H10Z"/><path fill="none" stroke="#ffd23f" stroke-linecap="round" stroke-linejoin="round" stroke-width="3.2" d="m22 44 16 8m0-8-16 8m0 8 16 8m0-8-16 8"/></svg>
